# xmcd
#
# Track frame offsets: 
#        150
#        27237
#        41297
#        60722
#        94692
#        111393
#        125742
#        145476
#        163296
#        181461
#        204352
#        220331
#        237636
#
# Disc length: 3611 seconds
#
# Revision: 1
# Processed by: cddbd v1.5.2PL0 Copyright (c) Steve Scherf et al.
# Submitted via: ExactAudioCopy v1.0b2
#
DISCID=c70e190d
DTITLE=Dudley Taft - Left For Dead
DYEAR=2011
DGENRE=Blues
TTITLE0=Aint No Game
TTITLE1=Back Door Man
TTITLE2=Broken Down
TTITLE3=Have You Ever Loved A Woman
TTITLE4=Left For Dead
TTITLE5=When Your Way Gets Dark
TTITLE6=Devils Crown
TTITLE7=Long Way Down (Left For Dead Pt II)
TTITLE8=Blue Lady
TTITLE9=Drifting
TTITLE10=Seventh Son
TTITLE11=If Youll Come Home
TTITLE12=When The Levee Breaks
EXTD=
EXTT0=
EXTT1=
EXTT2=
EXTT3=
EXTT4=
EXTT5=
EXTT6=
EXTT7=
EXTT8=
EXTT9=
EXTT10=
EXTT11=
EXTT12=
PLAYORDER=
